# xmcd
#
# Track frame offsets:
#	150
#	14250
#	27925
#	44855
#	57820
#	71542
#	89222
#	104312
#	120490
#	134215
#	149160
#	162875
#
# Disc length: 2375 seconds
#
# Revision: 0
# Processed by: cddbd v1.5.2PL0 Copyright (c) Steve Scherf et al.
# Submitted via: audiograbber 1.83.01
#
DISCID=b809450c
DTITLE=TRUCKS aus dem Zillertal - Unplugged
DYEAR=1900
DGENRE=
TTITLE0=Slow It Goes Up	3:08	Trucks Aus Dem Zillertal	Unplugged	Other
TTITLE1=Tulsa Time	3:02	Trucks Aus Dem Zillertal	Unplugged	Other
TTITLE2=Help Me Make It Trough The Night	3:46	Trucks Aus Dem Zillertal	Unplugge
TTITLE2=d	Other
TTITLE3=Folson Prison Blues	2:53	Trucks Aus Dem Zillertal	Unplugged	Other
TTITLE4=The Boxer	3:03	Trucks Aus Dem Zillertal	Unplugged	Other
TTITLE5=Games People Play	3:56	Trucks Aus Dem Zillertal	Unplugged	Other
TTITLE6=Jambalaya	3:21	Trucks Aus Dem Zillertal	Unplugged	Other
TTITLE7=Banks Of Ohio	3:36	Trucks Aus Dem Zillertal	Unplugged	Other
TTITLE8=Proud Mary	3:03	Trucks Aus Dem Zillertal	Unplugged	Other
TTITLE9=Bobby, MC Gee	3:19	Trucks Aus Dem Zillertal	Unplugged	Other
TTITLE10=Leaving Loisianna	3:03	Trucks Aus Dem Zillertal	Unplugged	Other
TTITLE11=Lay Down Sally	3:23	Trucks Aus Dem Zillertal	Unplugged	Other
EXTD=
EXTT0=
EXTT1=
EXTT2=
EXTT3=
EXTT4=
EXTT5=
EXTT6=
EXTT7=
EXTT8=
EXTT9=
EXTT10=
EXTT11=
PLAYORDER=
